<svg xmlns="http://www.w3.org/2000/svg" role="img" viewBox="0 0 2075 1670" width="2075" height="1670" shape-rendering="geometricPrecision" text-rendering="geometricPrecision" data-nomai-renderer="nomai-text-jl-upstream-port-v1" data-upstream-project="evanfields/NomaiText.jl" data-upstream-behavior="draw_spiral" data-layout-base="NomaiText.jl:PathGridLayout" data-visible-grammar="nomai-text-jl-known-glyph-polygons" data-paragraph-ring-mode="disabled" data-layout-tuning="nomai-text-jl-pathgrid-strict-v1" data-oracle-base="200000" data-collision-policy="period-grow-and-safe-connector" data-spiral-period="4.32" data-collision-extra-period-steps="0" data-spiral-turns="0.69" data-upstream-stroke="dodgerblue4" data-nomai-token-stream="NOMAI1-4k-633ada59-MS965935T3HSE7F64TFEHYSRHXFY525MRS10PJQ5902PHC7GHGCP288N6WZEM89N8416VL9RMZS9JCD9X2D1M2CS1WFLTVKTDB6X8HR489QZBB8S8S1KQ9YGGBGGRA55R7NSERJJ1VQJPMXXFG0S28RRNM55BSA3VSBND55XFXJRLXYV23VF6Z447KD80E4NZ2ML5WBEWM3J7MGKAXFR7D0ELV3SXZX334LCM40VQGJ9T1SC4BYV5C15N2CZVSFTQ85C">
<metadata type="application/nomai+json">{&quot;tokenStream&quot;:&quot;NOMAI1-4k-633ada59-MS965935T3HSE7F64TFEHYSRHXFY525MRS10PJQ5902PHC7GHGCP288N6WZEM89N8416VL9RMZS9JCD9X2D1M2CS1WFLTVKTDB6X8HR489QZBB8S8S1KQ9YGGBGGRA55R7NSERJJ1VQJPMXXFG0S28RRNM55BSA3VSBND55XFXJRLXYV23VF6Z447KD80E4NZ2ML5WBEWM3J7MGKAXFR7D0ELV3SXZX334LCM40VQGJ9T1SC4BYV5C15N2CZVSFTQ85C&quot;,&quot;envelope&quot;:{&quot;version&quot;:1,&quot;originalText&quot;:&quot;Hello Nomai!&quot;,&quot;pivotEnglish&quot;:null,&quot;sourceLang&quot;:&quot;auto&quot;,&quot;seed&quot;:47,&quot;handwriting&quot;:0,&quot;style&quot;:&quot;nomai-text-jl&quot;,&quot;createdBy&quot;:&quot;nomai-reversible&quot;},&quot;checksum&quot;:&quot;633ada59&quot;,&quot;renderer&quot;:&quot;NomaiTextJlUpstreamPortV1&quot;,&quot;upstreamProject&quot;:&quot;evanfields/NomaiText.jl&quot;,&quot;upstreamBehavior&quot;:&quot;draw_spiral&quot;,&quot;layoutBase&quot;:&quot;NomaiText.jl:PathGridLayout&quot;,&quot;visibleGrammar&quot;:&quot;nomai-text-jl-known-glyph-polygons&quot;,&quot;paragraphRingMode&quot;:&quot;disabled&quot;,&quot;layoutTuning&quot;:&quot;nomai-text-jl-pathgrid-strict-v1&quot;,&quot;oracleBase&quot;:200000,&quot;collisionPolicy&quot;:&quot;period-grow-and-safe-connector&quot;,&quot;spiralTurns&quot;:0.6874999999999997,&quot;spiralPeriod&quot;:4.319689898685963,&quot;collisionExtraPeriodSteps&quot;:0,&quot;collisionCount&quot;:0,&quot;glyphCount&quot;:29,&quot;connectionCount&quot;:31,&quot;columns&quot;:20}</metadata>
<rect width="100%" height="100%" fill="antiquewhite"/>
<g stroke="#104e8b" fill="none" stroke-width="4" stroke-linecap="round" stroke-linejoin="round">
<path class="nomai-text-jl-glyph" data-source-glyph="digit11-square" data-core-digit="digit11" data-glyph-part="core" d="M 1304.19 443.59 L 1302.12 461.47 L 1285.59 468.62 L 1271.15 457.88 L 1273.22 440.00"/>
<circle class="nomai-text-jl-vertex-circle" data-source-glyph="digit11-square" data-core-digit="digit11" cx="1302.12" cy="461.47" r="5" fill="#104e8b" stroke="none"/>
<circle class="nomai-text-jl-vertex-circle" data-source-glyph="digit11-square" data-core-digit="digit11" cx="1285.59" cy="468.62" r="5" fill="#104e8b" stroke="none"/>
<circle class="nomai-text-jl-vertex-circle" data-source-glyph="digit11-square" data-core-digit="digit11" cx="1271.15" cy="457.88" r="5" fill="#104e8b" stroke="none"/>
<path class="nomai-text-jl-annotation" data-source-glyph="digit11-square" data-core-digit="digit11" data-glyph-part="annotation" d="M 1304.19 443.59 L 1322.07 445.66 L 1320.00 463.54 L 1302.12 461.47"/>
<circle class="nomai-text-jl-vertex-circle" data-source-glyph="digit11-square" data-core-digit="digit11" cx="1322.07" cy="445.66" r="5" fill="#104e8b" stroke="none"/>
<circle class="nomai-text-jl-vertex-circle" data-source-glyph="digit11-square" data-core-digit="digit11" cx="1320.00" cy="463.54" r="5" fill="#104e8b" stroke="none"/>
<path class="nomai-text-jl-glyph" data-source-glyph="digit0" data-core-digit="digit0" data-glyph-part="core" d="M 1317.95 529.26 L 1326.22 510.26 L 1345.22 518.53 L 1336.95 537.53"/>
<circle class="nomai-text-jl-vertex-circle" data-source-glyph="digit0" data-core-digit="digit0" cx="1326.22" cy="510.26" r="5" fill="#104e8b" stroke="none"/>
<circle class="nomai-text-jl-vertex-circle" data-source-glyph="digit0" data-core-digit="digit0" cx="1345.22" cy="518.53" r="5" fill="#104e8b" stroke="none"/>
<path class="nomai-text-jl-glyph" data-source-glyph="digit10" data-core-digit="digit10" data-glyph-part="core" d="M 1428.59 522.13 L 1407.43 518.46 L 1400.03 498.29 L 1413.79 481.80 L 1434.95 485.48"/>
<circle class="nomai-text-jl-vertex-circle" data-source-glyph="digit10" data-core-digit="digit10" cx="1407.43" cy="518.46" r="5" fill="#104e8b" stroke="none"/>
<circle class="nomai-text-jl-vertex-circle" data-source-glyph="digit10" data-core-digit="digit10" cx="1400.03" cy="498.29" r="5" fill="#104e8b" stroke="none"/>
<circle class="nomai-text-jl-vertex-circle" data-source-glyph="digit10" data-core-digit="digit10" cx="1413.79" cy="481.80" r="5" fill="#104e8b" stroke="none"/>
<path class="nomai-text-jl-glyph" data-source-glyph="digit2" data-core-digit="digit2" data-glyph-part="core" d="M 1548.11 520.62 L 1529.69 533.15 L 1517.17 514.73 L 1535.58 502.21"/>
<circle class="nomai-text-jl-vertex-circle" data-source-glyph="digit2" data-core-digit="digit2" cx="1529.69" cy="533.15" r="5" fill="#104e8b" stroke="none"/>
<circle class="nomai-text-jl-vertex-circle" data-source-glyph="digit2" data-core-digit="digit2" cx="1517.17" cy="514.73" r="5" fill="#104e8b" stroke="none"/>
<path class="nomai-text-jl-glyph" data-source-glyph="digit2-horns-lower" data-core-digit="digit2" data-glyph-part="core" d="M 1490.66 559.69 L 1472.24 572.21 L 1459.72 553.80 L 1478.13 541.27"/>
<circle class="nomai-text-jl-vertex-circle" data-source-glyph="digit2-horns-lower" data-core-digit="digit2" cx="1472.24" cy="572.21" r="5" fill="#104e8b" stroke="none"/>
<circle class="nomai-text-jl-vertex-circle" data-source-glyph="digit2-horns-lower" data-core-digit="digit2" cx="1459.72" cy="553.80" r="5" fill="#104e8b" stroke="none"/>
<path class="nomai-text-jl-annotation" data-source-glyph="digit2-horns-lower" data-core-digit="digit2" data-glyph-part="annotation" d="M 1488.65 575.34 L 1472.24 572.21"/>
<path class="nomai-text-jl-annotation" data-source-glyph="digit2-horns-lower" data-core-digit="digit2" data-glyph-part="annotation" d="M 1459.72 553.80 L 1456.59 570.20"/>
<path class="nomai-text-jl-glyph" data-source-glyph="digit2" data-core-digit="digit2" data-glyph-part="core" d="M 1597.07 609.96 L 1575.23 617.48 L 1567.71 595.64 L 1589.56 588.12"/>
<circle class="nomai-text-jl-vertex-circle" data-source-glyph="digit2" data-core-digit="digit2" cx="1575.23" cy="617.48" r="5" fill="#104e8b" stroke="none"/>
<circle class="nomai-text-jl-vertex-circle" data-source-glyph="digit2" data-core-digit="digit2" cx="1567.71" cy="595.64" r="5" fill="#104e8b" stroke="none"/>
<path class="nomai-text-jl-glyph" data-source-glyph="digit4-spike-bottom" data-core-digit="digit4" data-glyph-part="core" d="M 1495.13 632.83 L 1501.89 610.74 L 1524.99 610.34 L 1532.51 632.18 L 1514.05 646.08 Z"/>
<circle class="nomai-text-jl-vertex-circle" data-source-glyph="digit4-spike-bottom" data-core-digit="digit4" cx="1495.13" cy="632.83" r="5" fill="#104e8b" stroke="none"/>
<circle class="nomai-text-jl-vertex-circle" data-source-glyph="digit4-spike-bottom" data-core-digit="digit4" cx="1501.89" cy="610.74" r="5" fill="#104e8b" stroke="none"/>
<circle class="nomai-text-jl-vertex-circle" data-source-glyph="digit4-spike-bottom" data-core-digit="digit4" cx="1524.99" cy="610.34" r="5" fill="#104e8b" stroke="none"/>
<circle class="nomai-text-jl-vertex-circle" data-source-glyph="digit4-spike-bottom" data-core-digit="digit4" cx="1532.51" cy="632.18" r="5" fill="#104e8b" stroke="none"/>
<circle class="nomai-text-jl-vertex-circle" data-source-glyph="digit4-spike-bottom" data-core-digit="digit4" cx="1514.05" cy="646.08" r="5" fill="#104e8b" stroke="none"/>
<path class="nomai-text-jl-annotation" data-source-glyph="digit4-spike-bottom" data-core-digit="digit4" data-glyph-part="annotation" d="M 1495.13 632.83 L 1495.43 650.15"/>
<path class="nomai-text-jl-glyph" data-source-glyph="digit13" data-core-digit="digit13" data-glyph-part="core" d="M 1546.90 726.43 L 1522.99 728.20 L 1509.51 708.39 L 1519.93 686.80 L 1543.83 685.03 L 1557.32 704.85"/>
<circle class="nomai-text-jl-vertex-circle" data-source-glyph="digit13" data-core-digit="digit13" cx="1522.99" cy="728.20" r="5" fill="#104e8b" stroke="none"/>
<circle class="nomai-text-jl-vertex-circle" data-source-glyph="digit13" data-core-digit="digit13" cx="1509.51" cy="708.39" r="5" fill="#104e8b" stroke="none"/>
<circle class="nomai-text-jl-vertex-circle" data-source-glyph="digit13" data-core-digit="digit13" cx="1519.93" cy="686.80" r="5" fill="#104e8b" stroke="none"/>
<circle class="nomai-text-jl-vertex-circle" data-source-glyph="digit13" data-core-digit="digit13" cx="1543.83" cy="685.03" r="5" fill="#104e8b" stroke="none"/>
<path class="nomai-text-jl-glyph" data-source-glyph="digit15" data-core-digit="digit15" data-glyph-part="core" d="M 1447.41 733.80 L 1433.93 713.99 L 1444.34 692.40 L 1468.25 690.63 L 1481.74 710.44 L 1471.32 732.03 Z"/>
<circle class="nomai-text-jl-vertex-circle" data-source-glyph="digit15" data-core-digit="digit15" cx="1447.41" cy="733.80" r="5" fill="#104e8b" stroke="none"/>
<circle class="nomai-text-jl-vertex-circle" data-source-glyph="digit15" data-core-digit="digit15" cx="1433.93" cy="713.99" r="5" fill="#104e8b" stroke="none"/>
<circle class="nomai-text-jl-vertex-circle" data-source-glyph="digit15" data-core-digit="digit15" cx="1444.34" cy="692.40" r="5" fill="#104e8b" stroke="none"/>
<circle class="nomai-text-jl-vertex-circle" data-source-glyph="digit15" data-core-digit="digit15" cx="1468.25" cy="690.63" r="5" fill="#104e8b" stroke="none"/>
<circle class="nomai-text-jl-vertex-circle" data-source-glyph="digit15" data-core-digit="digit15" cx="1481.74" cy="710.44" r="5" fill="#104e8b" stroke="none"/>
<circle class="nomai-text-jl-vertex-circle" data-source-glyph="digit15" data-core-digit="digit15" cx="1471.32" cy="732.03" r="5" fill="#104e8b" stroke="none"/>
<path class="nomai-text-jl-glyph" data-source-glyph="digit10" data-core-digit="digit10" data-glyph-part="core" d="M 1593.83 825.05 L 1585.37 801.66 L 1601.40 782.64 L 1625.89 787.01 L 1634.35 810.40"/>
<circle class="nomai-text-jl-vertex-circle" data-source-glyph="digit10" data-core-digit="digit10" cx="1585.37" cy="801.66" r="5" fill="#104e8b" stroke="none"/>
<circle class="nomai-text-jl-vertex-circle" data-source-glyph="digit10" data-core-digit="digit10" cx="1601.40" cy="782.64" r="5" fill="#104e8b" stroke="none"/>
<circle class="nomai-text-jl-vertex-circle" data-source-glyph="digit10" data-core-digit="digit10" cx="1625.89" cy="787.01" r="5" fill="#104e8b" stroke="none"/>
<path class="nomai-text-jl-glyph" data-source-glyph="digit1" data-core-digit="digit1" data-glyph-part="core" d="M 1439.99 788.35 L 1444.36 763.86 L 1468.85 768.23 L 1464.48 792.72"/>
<circle class="nomai-text-jl-vertex-circle" data-source-glyph="digit1" data-core-digit="digit1" cx="1444.36" cy="763.86" r="5" fill="#104e8b" stroke="none"/>
<circle class="nomai-text-jl-vertex-circle" data-source-glyph="digit1" data-core-digit="digit1" cx="1468.85" cy="768.23" r="5" fill="#104e8b" stroke="none"/>
<path class="nomai-text-jl-glyph" data-source-glyph="digit0-spike-upper-right" data-core-digit="digit0" data-glyph-part="core" d="M 1577.51 894.28 L 1601.07 904.85 L 1590.50 928.41 L 1566.95 917.84"/>
<circle class="nomai-text-jl-vertex-circle" data-source-glyph="digit0-spike-upper-right" data-core-digit="digit0" cx="1601.07" cy="904.85" r="5" fill="#104e8b" stroke="none"/>
<circle class="nomai-text-jl-vertex-circle" data-source-glyph="digit0-spike-upper-right" data-core-digit="digit0" cx="1590.50" cy="928.41" r="5" fill="#104e8b" stroke="none"/>
<path class="nomai-text-jl-annotation" data-source-glyph="digit0-spike-upper-right" data-core-digit="digit0" data-glyph-part="annotation" d="M 1590.50 928.41 L 1608.60 921.52"/>
<path class="nomai-text-jl-glyph" data-source-glyph="digit15-right-pentagon" data-core-digit="digit15" data-glyph-part="core" d="M 1495.49 887.56 L 1493.79 870.86 L 1507.39 861.04 L 1522.70 867.91 L 1524.41 884.60 L 1510.80 894.43 Z"/>
<circle class="nomai-text-jl-vertex-circle" data-source-glyph="digit15-right-pentagon" data-core-digit="digit15" cx="1495.49" cy="887.56" r="5" fill="#104e8b" stroke="none"/>
<circle class="nomai-text-jl-vertex-circle" data-source-glyph="digit15-right-pentagon" data-core-digit="digit15" cx="1493.79" cy="870.86" r="5" fill="#104e8b" stroke="none"/>
<circle class="nomai-text-jl-vertex-circle" data-source-glyph="digit15-right-pentagon" data-core-digit="digit15" cx="1507.39" cy="861.04" r="5" fill="#104e8b" stroke="none"/>
<circle class="nomai-text-jl-vertex-circle" data-source-glyph="digit15-right-pentagon" data-core-digit="digit15" cx="1522.70" cy="867.91" r="5" fill="#104e8b" stroke="none"/>
<circle class="nomai-text-jl-vertex-circle" data-source-glyph="digit15-right-pentagon" data-core-digit="digit15" cx="1524.41" cy="884.60" r="5" fill="#104e8b" stroke="none"/>
<circle class="nomai-text-jl-vertex-circle" data-source-glyph="digit15-right-pentagon" data-core-digit="digit15" cx="1510.80" cy="894.43" r="5" fill="#104e8b" stroke="none"/>
<path class="nomai-text-jl-annotation" data-source-glyph="digit15-right-pentagon" data-core-digit="digit15" data-glyph-part="annotation" d="M 1481.24 904.95 L 1495.80 896.60 L 1508.24 907.86 L 1501.37 923.17 L 1484.68 921.37 Z"/>
<circle class="nomai-text-jl-vertex-circle" data-source-glyph="digit15-right-pentagon" data-core-digit="digit15" cx="1481.24" cy="904.95" r="5" fill="#104e8b" stroke="none"/>
<circle class="nomai-text-jl-vertex-circle" data-source-glyph="digit15-right-pentagon" data-core-digit="digit15" cx="1495.80" cy="896.60" r="5" fill="#104e8b" stroke="none"/>
<circle class="nomai-text-jl-vertex-circle" data-source-glyph="digit15-right-pentagon" data-core-digit="digit15" cx="1508.24" cy="907.86" r="5" fill="#104e8b" stroke="none"/>
<circle class="nomai-text-jl-vertex-circle" data-source-glyph="digit15-right-pentagon" data-core-digit="digit15" cx="1501.37" cy="923.17" r="5" fill="#104e8b" stroke="none"/>
<circle class="nomai-text-jl-vertex-circle" data-source-glyph="digit15-right-pentagon" data-core-digit="digit15" cx="1484.68" cy="921.37" r="5" fill="#104e8b" stroke="none"/>
<path class="nomai-text-jl-glyph" data-source-glyph="digit2-spike-lower-left" data-core-digit="digit2" data-glyph-part="core" d="M 1535.29 1028.23 L 1514.03 1011.92 L 1530.35 990.66 L 1551.61 1006.98"/>
<circle class="nomai-text-jl-vertex-circle" data-source-glyph="digit2-spike-lower-left" data-core-digit="digit2" cx="1514.03" cy="1011.92" r="5" fill="#104e8b" stroke="none"/>
<circle class="nomai-text-jl-vertex-circle" data-source-glyph="digit2-spike-lower-left" data-core-digit="digit2" cx="1530.35" cy="990.66" r="5" fill="#104e8b" stroke="none"/>
<path class="nomai-text-jl-annotation" data-source-glyph="digit2-spike-lower-left" data-core-digit="digit2" data-glyph-part="annotation" d="M 1530.35 990.66 L 1510.42 993.28"/>
<path class="nomai-text-jl-glyph" data-source-glyph="digit1-horns-left" data-core-digit="digit1" data-glyph-part="core" d="M 1378.76 908.09 L 1395.08 886.83 L 1416.33 903.15 L 1400.02 924.40"/>
<circle class="nomai-text-jl-vertex-circle" data-source-glyph="digit1-horns-left" data-core-digit="digit1" cx="1395.08" cy="886.83" r="5" fill="#104e8b" stroke="none"/>
<circle class="nomai-text-jl-vertex-circle" data-source-glyph="digit1-horns-left" data-core-digit="digit1" cx="1416.33" cy="903.15" r="5" fill="#104e8b" stroke="none"/>
<path class="nomai-text-jl-annotation" data-source-glyph="digit1-horns-left" data-core-digit="digit1" data-glyph-part="annotation" d="M 1375.15 889.45 L 1395.08 886.83"/>
<path class="nomai-text-jl-annotation" data-source-glyph="digit1-horns-left" data-core-digit="digit1" data-glyph-part="annotation" d="M 1416.33 903.15 L 1413.71 883.22"/>
<path class="nomai-text-jl-glyph" data-source-glyph="digit10-square" data-core-digit="digit10" data-glyph-part="core" d="M 1433.21 1099.87 L 1442.05 1076.46 L 1466.75 1072.40 L 1482.61 1091.77 L 1473.77 1115.19"/>
<circle class="nomai-text-jl-vertex-circle" data-source-glyph="digit10-square" data-core-digit="digit10" cx="1442.05" cy="1076.46" r="5" fill="#104e8b" stroke="none"/>
<circle class="nomai-text-jl-vertex-circle" data-source-glyph="digit10-square" data-core-digit="digit10" cx="1466.75" cy="1072.40" r="5" fill="#104e8b" stroke="none"/>
<circle class="nomai-text-jl-vertex-circle" data-source-glyph="digit10-square" data-core-digit="digit10" cx="1482.61" cy="1091.77" r="5" fill="#104e8b" stroke="none"/>
<path class="nomai-text-jl-annotation" data-source-glyph="digit10-square" data-core-digit="digit10" data-glyph-part="annotation" d="M 1482.61 1091.77 L 1506.03 1100.61 L 1497.19 1124.03 L 1473.77 1115.19"/>
<circle class="nomai-text-jl-vertex-circle" data-source-glyph="digit10-square" data-core-digit="digit10" cx="1506.03" cy="1100.61" r="5" fill="#104e8b" stroke="none"/>
<circle class="nomai-text-jl-vertex-circle" data-source-glyph="digit10-square" data-core-digit="digit10" cx="1497.19" cy="1124.03" r="5" fill="#104e8b" stroke="none"/>
<path class="nomai-text-jl-glyph" data-source-glyph="digit15-right-pentagon" data-core-digit="digit15" data-glyph-part="core" d="M 1328.03 961.93 L 1334.42 945.01 L 1352.26 942.09 L 1363.71 956.07 L 1357.33 972.99 L 1339.49 975.91 Z"/>
<circle class="nomai-text-jl-vertex-circle" data-source-glyph="digit15-right-pentagon" data-core-digit="digit15" cx="1328.03" cy="961.93" r="5" fill="#104e8b" stroke="none"/>
<circle class="nomai-text-jl-vertex-circle" data-source-glyph="digit15-right-pentagon" data-core-digit="digit15" cx="1334.42" cy="945.01" r="5" fill="#104e8b" stroke="none"/>
<circle class="nomai-text-jl-vertex-circle" data-source-glyph="digit15-right-pentagon" data-core-digit="digit15" cx="1352.26" cy="942.09" r="5" fill="#104e8b" stroke="none"/>
<circle class="nomai-text-jl-vertex-circle" data-source-glyph="digit15-right-pentagon" data-core-digit="digit15" cx="1363.71" cy="956.07" r="5" fill="#104e8b" stroke="none"/>
<circle class="nomai-text-jl-vertex-circle" data-source-glyph="digit15-right-pentagon" data-core-digit="digit15" cx="1357.33" cy="972.99" r="5" fill="#104e8b" stroke="none"/>
<circle class="nomai-text-jl-vertex-circle" data-source-glyph="digit15-right-pentagon" data-core-digit="digit15" cx="1339.49" cy="975.91" r="5" fill="#104e8b" stroke="none"/>
<path class="nomai-text-jl-annotation" data-source-glyph="digit15-right-pentagon" data-core-digit="digit15" data-glyph-part="annotation" d="M 1305.93 971.83 L 1323.98 970.78 L 1330.55 987.63 L 1316.56 999.08 L 1301.35 989.32 Z"/>
<circle class="nomai-text-jl-vertex-circle" data-source-glyph="digit15-right-pentagon" data-core-digit="digit15" cx="1305.93" cy="971.83" r="5" fill="#104e8b" stroke="none"/>
<circle class="nomai-text-jl-vertex-circle" data-source-glyph="digit15-right-pentagon" data-core-digit="digit15" cx="1323.98" cy="970.78" r="5" fill="#104e8b" stroke="none"/>
<circle class="nomai-text-jl-vertex-circle" data-source-glyph="digit15-right-pentagon" data-core-digit="digit15" cx="1330.55" cy="987.63" r="5" fill="#104e8b" stroke="none"/>
<circle class="nomai-text-jl-vertex-circle" data-source-glyph="digit15-right-pentagon" data-core-digit="digit15" cx="1316.56" cy="999.08" r="5" fill="#104e8b" stroke="none"/>
<circle class="nomai-text-jl-vertex-circle" data-source-glyph="digit15-right-pentagon" data-core-digit="digit15" cx="1301.35" cy="989.32" r="5" fill="#104e8b" stroke="none"/>
<path class="nomai-text-jl-glyph" data-source-glyph="digit10" data-core-digit="digit10" data-glyph-part="core" d="M 1293.66 1081.13 L 1309.50 1057.00 L 1338.32 1058.66 L 1351.29 1084.44 L 1335.45 1108.57"/>
<circle class="nomai-text-jl-vertex-circle" data-source-glyph="digit10" data-core-digit="digit10" cx="1309.50" cy="1057.00" r="5" fill="#104e8b" stroke="none"/>
<circle class="nomai-text-jl-vertex-circle" data-source-glyph="digit10" data-core-digit="digit10" cx="1338.32" cy="1058.66" r="5" fill="#104e8b" stroke="none"/>
<circle class="nomai-text-jl-vertex-circle" data-source-glyph="digit10" data-core-digit="digit10" cx="1351.29" cy="1084.44" r="5" fill="#104e8b" stroke="none"/>
<path class="nomai-text-jl-glyph" data-source-glyph="digit7" data-core-digit="digit7" data-glyph-part="core" d="M 1222.47 1091.74 L 1251.28 1099.92 L 1258.60 1128.97 L 1237.10 1149.83"/>
<circle class="nomai-text-jl-vertex-circle" data-source-glyph="digit7" data-core-digit="digit7" cx="1251.28" cy="1099.92" r="5" fill="#104e8b" stroke="none"/>
<circle class="nomai-text-jl-vertex-circle" data-source-glyph="digit7" data-core-digit="digit7" cx="1258.60" cy="1128.97" r="5" fill="#104e8b" stroke="none"/>
<path class="nomai-text-jl-glyph" data-source-glyph="digit0-horns-upper" data-core-digit="digit0" data-glyph-part="core" d="M 1217.52 1010.73 L 1224.83 1039.78 L 1195.78 1047.09 L 1188.47 1018.05"/>
<circle class="nomai-text-jl-vertex-circle" data-source-glyph="digit0-horns-upper" data-core-digit="digit0" cx="1224.83" cy="1039.78" r="5" fill="#104e8b" stroke="none"/>
<circle class="nomai-text-jl-vertex-circle" data-source-glyph="digit0-horns-upper" data-core-digit="digit0" cx="1195.78" cy="1047.09" r="5" fill="#104e8b" stroke="none"/>
<path class="nomai-text-jl-annotation" data-source-glyph="digit0-horns-upper" data-core-digit="digit0" data-glyph-part="annotation" d="M 1236.36 1020.50 L 1224.83 1039.78"/>
<path class="nomai-text-jl-annotation" data-source-glyph="digit0-horns-upper" data-core-digit="digit0" data-glyph-part="annotation" d="M 1195.78 1047.09 L 1215.07 1058.62"/>
<path class="nomai-text-jl-glyph" data-source-glyph="digit9" data-core-digit="digit9" data-glyph-part="core" d="M 1098.92 1057.63 L 1097.49 1026.59 L 1123.66 1009.82 L 1151.26 1024.10"/>
<circle class="nomai-text-jl-vertex-circle" data-source-glyph="digit9" data-core-digit="digit9" cx="1097.49" cy="1026.59" r="5" fill="#104e8b" stroke="none"/>
<circle class="nomai-text-jl-vertex-circle" data-source-glyph="digit9" data-core-digit="digit9" cx="1123.66" cy="1009.82" r="5" fill="#104e8b" stroke="none"/>
<path class="nomai-text-jl-glyph" data-source-glyph="digit15" data-core-digit="digit15" data-glyph-part="core" d="M 998.79 1114.96 L 1028.96 1103.57 L 1053.90 1124.01 L 1048.67 1155.83 L 1018.51 1167.21 L 993.56 1146.77 Z"/>
<circle class="nomai-text-jl-vertex-circle" data-source-glyph="digit15" data-core-digit="digit15" cx="998.79" cy="1114.96" r="5" fill="#104e8b" stroke="none"/>
<circle class="nomai-text-jl-vertex-circle" data-source-glyph="digit15" data-core-digit="digit15" cx="1028.96" cy="1103.57" r="5" fill="#104e8b" stroke="none"/>
<circle class="nomai-text-jl-vertex-circle" data-source-glyph="digit15" data-core-digit="digit15" cx="1053.90" cy="1124.01" r="5" fill="#104e8b" stroke="none"/>
<circle class="nomai-text-jl-vertex-circle" data-source-glyph="digit15" data-core-digit="digit15" cx="1048.67" cy="1155.83" r="5" fill="#104e8b" stroke="none"/>
<circle class="nomai-text-jl-vertex-circle" data-source-glyph="digit15" data-core-digit="digit15" cx="1018.51" cy="1167.21" r="5" fill="#104e8b" stroke="none"/>
<circle class="nomai-text-jl-vertex-circle" data-source-glyph="digit15" data-core-digit="digit15" cx="993.56" cy="1146.77" r="5" fill="#104e8b" stroke="none"/>
<path class="nomai-text-jl-glyph" data-source-glyph="digit1" data-core-digit="digit1" data-glyph-part="core" d="M 872.40 1186.60 L 903.72 1198.32 L 892.00 1229.64 L 860.68 1217.92"/>
<circle class="nomai-text-jl-vertex-circle" data-source-glyph="digit1" data-core-digit="digit1" cx="903.72" cy="1198.32" r="5" fill="#104e8b" stroke="none"/>
<circle class="nomai-text-jl-vertex-circle" data-source-glyph="digit1" data-core-digit="digit1" cx="892.00" cy="1229.64" r="5" fill="#104e8b" stroke="none"/>
<path class="nomai-text-jl-glyph" data-source-glyph="digit0" data-core-digit="digit0" data-glyph-part="core" d="M 841.41 1058.59 L 823.17 1088.09 L 793.68 1069.85 L 811.92 1040.35"/>
<circle class="nomai-text-jl-vertex-circle" data-source-glyph="digit0" data-core-digit="digit0" cx="823.17" cy="1088.09" r="5" fill="#104e8b" stroke="none"/>
<circle class="nomai-text-jl-vertex-circle" data-source-glyph="digit0" data-core-digit="digit0" cx="793.68" cy="1069.85" r="5" fill="#104e8b" stroke="none"/>
<path class="nomai-text-jl-glyph" data-source-glyph="digit10" data-core-digit="digit10" data-glyph-part="core" d="M 639.31 1045.00 L 674.40 1052.84 L 685.16 1087.15 L 660.82 1113.62 L 625.73 1105.78"/>
<circle class="nomai-text-jl-vertex-circle" data-source-glyph="digit10" data-core-digit="digit10" cx="674.40" cy="1052.84" r="5" fill="#104e8b" stroke="none"/>
<circle class="nomai-text-jl-vertex-circle" data-source-glyph="digit10" data-core-digit="digit10" cx="685.16" cy="1087.15" r="5" fill="#104e8b" stroke="none"/>
<circle class="nomai-text-jl-vertex-circle" data-source-glyph="digit10" data-core-digit="digit10" cx="660.82" cy="1113.62" r="5" fill="#104e8b" stroke="none"/>
<path class="nomai-text-jl-glyph" data-source-glyph="digit10-square" data-core-digit="digit10" data-glyph-part="core" d="M 549.64 949.24 L 580.53 962.31 L 584.65 995.59 L 557.89 1015.81 L 527.00 1002.74"/>
<circle class="nomai-text-jl-vertex-circle" data-source-glyph="digit10-square" data-core-digit="digit10" cx="580.53" cy="962.31" r="5" fill="#104e8b" stroke="none"/>
<circle class="nomai-text-jl-vertex-circle" data-source-glyph="digit10-square" data-core-digit="digit10" cx="584.65" cy="995.59" r="5" fill="#104e8b" stroke="none"/>
<circle class="nomai-text-jl-vertex-circle" data-source-glyph="digit10-square" data-core-digit="digit10" cx="557.89" cy="1015.81" r="5" fill="#104e8b" stroke="none"/>
<path class="nomai-text-jl-annotation" data-source-glyph="digit10-square" data-core-digit="digit10" data-glyph-part="annotation" d="M 557.89 1015.81 L 544.82 1046.70 L 513.93 1033.63 L 527.00 1002.74"/>
<circle class="nomai-text-jl-vertex-circle" data-source-glyph="digit10-square" data-core-digit="digit10" cx="544.82" cy="1046.70" r="5" fill="#104e8b" stroke="none"/>
<circle class="nomai-text-jl-vertex-circle" data-source-glyph="digit10-square" data-core-digit="digit10" cx="513.93" cy="1033.63" r="5" fill="#104e8b" stroke="none"/>
<path class="nomai-text-jl-glyph" data-source-glyph="digit11-square" data-core-digit="digit11" data-glyph-part="core" d="M 613.59 900.93 L 640.35 880.72 L 671.24 893.79 L 675.37 927.07 L 648.60 947.29"/>
<circle class="nomai-text-jl-vertex-circle" data-source-glyph="digit11-square" data-core-digit="digit11" cx="640.35" cy="880.72" r="5" fill="#104e8b" stroke="none"/>
<circle class="nomai-text-jl-vertex-circle" data-source-glyph="digit11-square" data-core-digit="digit11" cx="671.24" cy="893.79" r="5" fill="#104e8b" stroke="none"/>
<circle class="nomai-text-jl-vertex-circle" data-source-glyph="digit11-square" data-core-digit="digit11" cx="675.37" cy="927.07" r="5" fill="#104e8b" stroke="none"/>
<path class="nomai-text-jl-annotation" data-source-glyph="digit11-square" data-core-digit="digit11" data-glyph-part="annotation" d="M 613.59 900.93 L 593.37 874.17 L 620.13 853.95 L 640.35 880.72"/>
<circle class="nomai-text-jl-vertex-circle" data-source-glyph="digit11-square" data-core-digit="digit11" cx="593.37" cy="874.17" r="5" fill="#104e8b" stroke="none"/>
<circle class="nomai-text-jl-vertex-circle" data-source-glyph="digit11-square" data-core-digit="digit11" cx="620.13" cy="853.95" r="5" fill="#104e8b" stroke="none"/>
<path class="nomai-text-jl-glyph" data-source-glyph="digit15" data-core-digit="digit15" data-glyph-part="core" d="M 476.67 828.26 L 508.96 849.43 L 506.78 887.99 L 472.29 905.37 L 440 884.20 L 442.19 845.65 Z"/>
<circle class="nomai-text-jl-vertex-circle" data-source-glyph="digit15" data-core-digit="digit15" cx="476.67" cy="828.26" r="5" fill="#104e8b" stroke="none"/>
<circle class="nomai-text-jl-vertex-circle" data-source-glyph="digit15" data-core-digit="digit15" cx="508.96" cy="849.43" r="5" fill="#104e8b" stroke="none"/>
<circle class="nomai-text-jl-vertex-circle" data-source-glyph="digit15" data-core-digit="digit15" cx="506.78" cy="887.99" r="5" fill="#104e8b" stroke="none"/>
<circle class="nomai-text-jl-vertex-circle" data-source-glyph="digit15" data-core-digit="digit15" cx="472.29" cy="905.37" r="5" fill="#104e8b" stroke="none"/>
<circle class="nomai-text-jl-vertex-circle" data-source-glyph="digit15" data-core-digit="digit15" cx="440" cy="884.20" r="5" fill="#104e8b" stroke="none"/>
<circle class="nomai-text-jl-vertex-circle" data-source-glyph="digit15" data-core-digit="digit15" cx="442.19" cy="845.65" r="5" fill="#104e8b" stroke="none"/>
<path class="nomai-text-jl-glyph" data-source-glyph="digit8" data-core-digit="digit8" data-glyph-part="core" d="M 539.90 663.53 L 569.17 690.81 L 560.18 729.78 L 521.93 741.49"/>
<circle class="nomai-text-jl-vertex-circle" data-source-glyph="digit8" data-core-digit="digit8" cx="569.17" cy="690.81" r="5" fill="#104e8b" stroke="none"/>
<circle class="nomai-text-jl-vertex-circle" data-source-glyph="digit8" data-core-digit="digit8" cx="560.18" cy="729.78" r="5" fill="#104e8b" stroke="none"/>
<path class="nomai-text-jl-connector" data-from-node="0" data-to-node="1" d="M 1320.00 463.54 L 1326.22 510.26"/><circle class="nomai-text-jl-vertex-circle" cx="1320.00" cy="463.54" r="5" fill="#104e8b" stroke="none"/><circle class="nomai-text-jl-vertex-circle" cx="1326.22" cy="510.26" r="5" fill="#104e8b" stroke="none"/>
<path class="nomai-text-jl-connector" data-from-node="1" data-to-node="2" d="M 1345.22 518.53 L 1400.03 498.29"/><circle class="nomai-text-jl-vertex-circle" cx="1345.22" cy="518.53" r="5" fill="#104e8b" stroke="none"/><circle class="nomai-text-jl-vertex-circle" cx="1400.03" cy="498.29" r="5" fill="#104e8b" stroke="none"/>
<path class="nomai-text-jl-connector" data-from-node="2" data-to-node="3" d="M 1434.95 485.48 L 1517.17 514.73"/><circle class="nomai-text-jl-vertex-circle" cx="1434.95" cy="485.48" r="5" fill="#104e8b" stroke="none"/><circle class="nomai-text-jl-vertex-circle" cx="1517.17" cy="514.73" r="5" fill="#104e8b" stroke="none"/>
<path class="nomai-text-jl-connector" data-from-node="2" data-to-node="4" d="M 1428.59 522.13 L 1459.72 553.80"/><circle class="nomai-text-jl-vertex-circle" cx="1428.59" cy="522.13" r="5" fill="#104e8b" stroke="none"/><circle class="nomai-text-jl-vertex-circle" cx="1459.72" cy="553.80" r="5" fill="#104e8b" stroke="none"/>
<path class="nomai-text-jl-connector" data-from-node="3" data-to-node="5" d="M 1529.69 533.15 L 1567.71 595.64"/><circle class="nomai-text-jl-vertex-circle" cx="1529.69" cy="533.15" r="5" fill="#104e8b" stroke="none"/><circle class="nomai-text-jl-vertex-circle" cx="1567.71" cy="595.64" r="5" fill="#104e8b" stroke="none"/>
<path class="nomai-text-jl-connector" data-from-node="4" data-to-node="6" d="M 1488.65 575.34 L 1501.89 610.74"/><circle class="nomai-text-jl-vertex-circle" cx="1488.65" cy="575.34" r="5" fill="#104e8b" stroke="none"/><circle class="nomai-text-jl-vertex-circle" cx="1501.89" cy="610.74" r="5" fill="#104e8b" stroke="none"/>
<path class="nomai-text-jl-connector" data-from-node="5" data-to-node="7" d="M 1575.23 617.48 L 1543.83 685.03"/><circle class="nomai-text-jl-vertex-circle" cx="1575.23" cy="617.48" r="5" fill="#104e8b" stroke="none"/><circle class="nomai-text-jl-vertex-circle" cx="1543.83" cy="685.03" r="5" fill="#104e8b" stroke="none"/>
<path class="nomai-text-jl-connector" data-from-node="6" data-to-node="8" d="M 1495.43 650.15 L 1468.25 690.63"/><circle class="nomai-text-jl-vertex-circle" cx="1495.43" cy="650.15" r="5" fill="#104e8b" stroke="none"/><circle class="nomai-text-jl-vertex-circle" cx="1468.25" cy="690.63" r="5" fill="#104e8b" stroke="none"/>
<path class="nomai-text-jl-connector" data-from-node="7" data-to-node="9" d="M 1546.90 726.43 L 1601.40 782.64"/><circle class="nomai-text-jl-vertex-circle" cx="1546.90" cy="726.43" r="5" fill="#104e8b" stroke="none"/><circle class="nomai-text-jl-vertex-circle" cx="1601.40" cy="782.64" r="5" fill="#104e8b" stroke="none"/>
<path class="nomai-text-jl-connector" data-from-node="8" data-to-node="10" d="M 1447.41 733.80 L 1444.36 763.86"/><circle class="nomai-text-jl-vertex-circle" cx="1447.41" cy="733.80" r="5" fill="#104e8b" stroke="none"/><circle class="nomai-text-jl-vertex-circle" cx="1444.36" cy="763.86" r="5" fill="#104e8b" stroke="none"/>
<path class="nomai-text-jl-connector" data-from-node="9" data-to-node="11" d="M 1593.83 825.05 L 1577.51 894.28"/><circle class="nomai-text-jl-vertex-circle" cx="1593.83" cy="825.05" r="5" fill="#104e8b" stroke="none"/><circle class="nomai-text-jl-vertex-circle" cx="1577.51" cy="894.28" r="5" fill="#104e8b" stroke="none"/>
<path class="nomai-text-jl-connector" data-from-node="10" data-to-node="12" d="M 1464.48 792.72 L 1507.39 861.04"/><circle class="nomai-text-jl-vertex-circle" cx="1464.48" cy="792.72" r="5" fill="#104e8b" stroke="none"/><circle class="nomai-text-jl-vertex-circle" cx="1507.39" cy="861.04" r="5" fill="#104e8b" stroke="none"/>
<path class="nomai-text-jl-connector" data-from-node="11" data-to-node="13" d="M 1566.95 917.84 L 1530.35 990.66"/><circle class="nomai-text-jl-vertex-circle" cx="1566.95" cy="917.84" r="5" fill="#104e8b" stroke="none"/><circle class="nomai-text-jl-vertex-circle" cx="1530.35" cy="990.66" r="5" fill="#104e8b" stroke="none"/>
<path class="nomai-text-jl-connector" data-from-node="12" data-to-node="14" d="M 1481.24 904.95 L 1416.33 903.15"/><circle class="nomai-text-jl-vertex-circle" cx="1481.24" cy="904.95" r="5" fill="#104e8b" stroke="none"/><circle class="nomai-text-jl-vertex-circle" cx="1416.33" cy="903.15" r="5" fill="#104e8b" stroke="none"/>
<path class="nomai-text-jl-connector" data-from-node="13" data-to-node="15" d="M 1514.03 1011.92 L 1466.75 1072.40"/><circle class="nomai-text-jl-vertex-circle" cx="1514.03" cy="1011.92" r="5" fill="#104e8b" stroke="none"/><circle class="nomai-text-jl-vertex-circle" cx="1466.75" cy="1072.40" r="5" fill="#104e8b" stroke="none"/>
<path class="nomai-text-jl-connector" data-from-node="14" data-to-node="16" d="M 1378.76 908.09 L 1352.26 942.09"/><circle class="nomai-text-jl-vertex-circle" cx="1378.76" cy="908.09" r="5" fill="#104e8b" stroke="none"/><circle class="nomai-text-jl-vertex-circle" cx="1352.26" cy="942.09" r="5" fill="#104e8b" stroke="none"/>
<path class="nomai-text-jl-connector" data-from-node="15" data-to-node="17" d="M 1433.21 1099.87 L 1351.29 1084.44"/><circle class="nomai-text-jl-vertex-circle" cx="1433.21" cy="1099.87" r="5" fill="#104e8b" stroke="none"/><circle class="nomai-text-jl-vertex-circle" cx="1351.29" cy="1084.44" r="5" fill="#104e8b" stroke="none"/>
<path class="nomai-text-jl-connector" data-from-node="16" data-to-node="17" d="M 1316.56 999.08 L 1309.50 1057.00"/><circle class="nomai-text-jl-vertex-circle" cx="1316.56" cy="999.08" r="5" fill="#104e8b" stroke="none"/><circle class="nomai-text-jl-vertex-circle" cx="1309.50" cy="1057.00" r="5" fill="#104e8b" stroke="none"/>
<path class="nomai-text-jl-connector" data-from-node="17" data-to-node="18" d="M 1293.66 1081.13 L 1251.28 1099.92"/><circle class="nomai-text-jl-vertex-circle" cx="1293.66" cy="1081.13" r="5" fill="#104e8b" stroke="none"/><circle class="nomai-text-jl-vertex-circle" cx="1251.28" cy="1099.92" r="5" fill="#104e8b" stroke="none"/>
<path class="nomai-text-jl-connector" data-from-node="17" data-to-node="19" d="M 1293.66 1081.13 L 1224.83 1039.78"/><circle class="nomai-text-jl-vertex-circle" cx="1293.66" cy="1081.13" r="5" fill="#104e8b" stroke="none"/><circle class="nomai-text-jl-vertex-circle" cx="1224.83" cy="1039.78" r="5" fill="#104e8b" stroke="none"/>
<path class="nomai-text-jl-connector" data-from-node="18" data-to-node="20" d="M 1222.47 1091.74 L 1151.26 1024.10"/><circle class="nomai-text-jl-vertex-circle" cx="1222.47" cy="1091.74" r="5" fill="#104e8b" stroke="none"/><circle class="nomai-text-jl-vertex-circle" cx="1151.26" cy="1024.10" r="5" fill="#104e8b" stroke="none"/>
<path class="nomai-text-jl-connector" data-from-node="19" data-to-node="20" d="M 1188.47 1018.05 L 1151.26 1024.10"/><circle class="nomai-text-jl-vertex-circle" cx="1188.47" cy="1018.05" r="5" fill="#104e8b" stroke="none"/><circle class="nomai-text-jl-vertex-circle" cx="1151.26" cy="1024.10" r="5" fill="#104e8b" stroke="none"/>
<path class="nomai-text-jl-connector" data-from-node="20" data-to-node="21" d="M 1098.92 1057.63 L 1053.90 1124.01"/><circle class="nomai-text-jl-vertex-circle" cx="1098.92" cy="1057.63" r="5" fill="#104e8b" stroke="none"/><circle class="nomai-text-jl-vertex-circle" cx="1053.90" cy="1124.01" r="5" fill="#104e8b" stroke="none"/>
<path class="nomai-text-jl-connector" data-from-node="21" data-to-node="22" d="M 993.56 1146.77 L 903.72 1198.32"/><circle class="nomai-text-jl-vertex-circle" cx="993.56" cy="1146.77" r="5" fill="#104e8b" stroke="none"/><circle class="nomai-text-jl-vertex-circle" cx="903.72" cy="1198.32" r="5" fill="#104e8b" stroke="none"/>
<path class="nomai-text-jl-connector" data-from-node="22" data-to-node="23" d="M 872.40 1186.60 L 823.17 1088.09"/><circle class="nomai-text-jl-vertex-circle" cx="872.40" cy="1186.60" r="5" fill="#104e8b" stroke="none"/><circle class="nomai-text-jl-vertex-circle" cx="823.17" cy="1088.09" r="5" fill="#104e8b" stroke="none"/>
<path class="nomai-text-jl-connector" data-from-node="23" data-to-node="24" d="M 793.68 1069.85 L 685.16 1087.15"/><circle class="nomai-text-jl-vertex-circle" cx="793.68" cy="1069.85" r="5" fill="#104e8b" stroke="none"/><circle class="nomai-text-jl-vertex-circle" cx="685.16" cy="1087.15" r="5" fill="#104e8b" stroke="none"/>
<path class="nomai-text-jl-connector" data-from-node="24" data-to-node="25" d="M 639.31 1045.00 L 584.65 995.59"/><circle class="nomai-text-jl-vertex-circle" cx="639.31" cy="1045.00" r="5" fill="#104e8b" stroke="none"/><circle class="nomai-text-jl-vertex-circle" cx="584.65" cy="995.59" r="5" fill="#104e8b" stroke="none"/>
<path class="nomai-text-jl-connector" data-from-node="24" data-to-node="26" d="M 639.31 1045.00 L 648.60 947.29"/><circle class="nomai-text-jl-vertex-circle" cx="639.31" cy="1045.00" r="5" fill="#104e8b" stroke="none"/><circle class="nomai-text-jl-vertex-circle" cx="648.60" cy="947.29" r="5" fill="#104e8b" stroke="none"/>
<path class="nomai-text-jl-connector" data-from-node="25" data-to-node="27" d="M 549.64 949.24 L 506.78 887.99"/><circle class="nomai-text-jl-vertex-circle" cx="549.64" cy="949.24" r="5" fill="#104e8b" stroke="none"/><circle class="nomai-text-jl-vertex-circle" cx="506.78" cy="887.99" r="5" fill="#104e8b" stroke="none"/>
<path class="nomai-text-jl-connector" data-from-node="26" data-to-node="27" d="M 593.37 874.17 L 506.78 887.99"/><circle class="nomai-text-jl-vertex-circle" cx="593.37" cy="874.17" r="5" fill="#104e8b" stroke="none"/><circle class="nomai-text-jl-vertex-circle" cx="506.78" cy="887.99" r="5" fill="#104e8b" stroke="none"/>
<path class="nomai-text-jl-connector" data-from-node="27" data-to-node="28" d="M 476.67 828.26 L 521.93 741.49"/><circle class="nomai-text-jl-vertex-circle" cx="476.67" cy="828.26" r="5" fill="#104e8b" stroke="none"/><circle class="nomai-text-jl-vertex-circle" cx="521.93" cy="741.49" r="5" fill="#104e8b" stroke="none"/>
</g>
</svg>